# xmcd
#
# Track frame offsets:
# 150
# 16685
# 29867
# 49540
# 63525
# 88850
# 112392
# 124232
# 143755
# 156937
#
# Disc length: 2465 seconds
#
# Revision: 0
# Processed by: cddbd v1.5.1PL0 Copyright (c) Steve Scherf et al.
# Submitted via: Axialis_AX_CDPlayer 2.6
#
DISCID=8f099f0a
DTITLE=Eric Andersen - A Country Dream
DYEAR=1900
DGENRE=
TTITLE0=(Sitting On) The Dock Of The Bay
TTITLE1=All I Remember Is You
TTITLE2=Deborah, I Love You
TTITLE3=Devon, You Look Like Heaven
TTITLE4=Eyes Gently Rolling
TTITLE5=Just A Country Dream
TTITLE6=Lovesick Blues
TTITLE7=Second Time Around
TTITLE8=Smashville Jam
TTITLE9=Waves Of Freedom
EXTD=
EXTT0=
EXTT1=
EXTT2=
EXTT3=
EXTT4=
EXTT5=
EXTT6=
EXTT7=
EXTT8=
EXTT9=
PLAYORDER=
